<svg width="62" height="65" viewBox="0 0 62 65" fill="none" xmlns="http://www.w3.org/2000/svg">
<g filter="url(#filter0_d_2_8)">
<path d="M58 28.5C58 44.2401 45.9117 57 31 57C16.0883 57 4 44.2401 4 28.5C4 12.7599 16.0883 0 31 0C45.9117 0 58 12.7599 58 28.5Z" fill="#100E74"/>
<path d="M24.6981 24.7822C24.6981 25.6175 24.3386 26.1958 23.6196 26.5171C23.403 26.6134 23.1715 26.6616 22.9253 26.6616C22.6889 26.6616 22.4624 26.6134 22.2457 26.5171C22.0388 26.4207 21.8566 26.2868 21.6991 26.1155C21.3642 25.7514 21.1967 25.307 21.1967 24.7822V23.8184C21.1967 22.5012 21.6301 21.3821 22.4968 20.4612C23.3636 19.5295 24.3879 19.0637 25.5698 19.0637H28.7905C29.4208 19.0637 29.9182 19.3689 30.2826 19.9793C30.391 20.1506 30.5043 20.2363 30.6224 20.2363C30.7505 20.2363 30.8588 20.1934 30.9475 20.1078L31.1986 19.8347C31.7403 19.3207 32.218 19.0101 32.6317 18.903C33.0454 18.7959 33.4738 18.7424 33.917 18.7424C34.3701 18.7424 34.8478 18.8977 35.3501 19.2082C35.8524 19.5188 36.2907 19.9311 36.6649 20.4451C36.7536 20.5629 36.857 20.6218 36.9752 20.6218C37.1722 20.6218 37.3741 20.4505 37.5809 20.1078C37.7976 19.7544 38.1473 19.4385 38.6299 19.16C39.1125 18.8816 39.669 18.7424 40.2993 18.7424C40.9297 18.7424 41.5009 18.8709 42.0131 19.1279C42.5351 19.3742 42.9832 19.7115 43.3575 20.1399C44.175 21.0609 44.5837 22.18 44.5837 23.4972V39.3196C44.5837 40.1335 44.2291 40.7117 43.52 41.0544C43.3033 41.1508 43.0719 41.199 42.8256 41.199C42.5893 41.199 42.3627 41.1454 42.146 41.0384C41.9392 40.942 41.7619 40.8081 41.6142 40.6368C41.2695 40.2727 41.0971 39.8336 41.0971 39.3196V23.5453C41.0971 23.0206 40.974 22.6244 40.7277 22.3567C40.2845 21.8747 39.8758 21.6338 39.5015 21.6338C39.1371 21.6338 38.8515 21.6873 38.6446 21.7944C38.4378 21.8908 38.2556 22.0247 38.098 22.196C37.7434 22.5815 37.5661 23.0206 37.5661 23.5132V39.3196C37.5661 40.1335 37.2116 40.7117 36.5024 41.0544C36.2956 41.1508 36.0691 41.199 35.8228 41.199C35.5865 41.199 35.3599 41.1454 35.1432 41.0384C34.9266 40.942 34.7394 40.8081 34.5818 40.6368C34.2371 40.2834 34.0647 39.8443 34.0647 39.3196V23.5453C34.0647 23.0206 33.9416 22.6244 33.6954 22.3567C33.2522 21.8747 32.7942 21.6338 32.3214 21.6338C31.8388 21.6338 31.4695 21.757 31.2134 22.0033C30.7603 22.453 30.5338 22.9724 30.5338 23.5614V36.139C30.5338 37.4562 30.1103 38.5753 29.2633 39.4963C28.4064 40.4279 27.3771 40.8938 26.1755 40.8938H24.905C24.5307 40.8938 24.2155 40.7546 23.9594 40.4761C23.7034 40.1977 23.5753 39.8604 23.5753 39.4641C23.5753 39.0572 23.7034 38.7092 23.9594 38.42C24.2155 38.1309 24.5307 37.9863 24.905 37.9863H25.3039C25.7865 37.9863 26.1558 37.8525 26.4119 37.5847C26.8354 37.1457 27.0472 36.6531 27.0472 36.1069V21.9551H26.3824C25.9096 21.9765 25.555 22.1211 25.3186 22.3888C24.905 22.86 24.6981 23.3526 24.6981 23.8666V24.7822Z" fill="#F07300"/>
<path d="M15.3512 22.1103C15.3512 21.7891 15.2084 21.6284 14.9228 21.6284H13.209C12.7658 21.6284 12.4309 21.7677 12.2044 22.0461C11.8104 22.528 11.6134 23.0206 11.6134 23.5239V24.4395C11.6134 25.2748 11.254 25.8531 10.535 26.1744C10.3183 26.2708 10.0868 26.319 9.84059 26.319C9.60421 26.319 9.37768 26.2708 9.16099 26.1744C8.95416 26.078 8.77687 25.9441 8.62913 25.7728C8.28441 25.4087 8.11205 24.9643 8.11205 24.4395V23.4757C8.11205 22.1692 8.54049 21.0502 9.39737 20.1185C10.2543 19.1868 11.2835 18.721 12.4851 18.721H19.222C20.8569 18.721 22.1423 19.1547 23.0779 20.0221C24.0038 20.8681 24.4667 22.0193 24.4667 23.4757V38.9769C24.4667 39.7908 24.1121 40.3691 23.403 40.7117C23.1961 40.8081 22.9696 40.8563 22.7234 40.8563C22.487 40.8563 22.2605 40.8028 22.0438 40.6957C21.8271 40.5993 21.64 40.4654 21.4824 40.2941C21.1376 39.9407 20.9653 39.5016 20.9653 38.9769V33.5957H17.4639V38.9769C17.4639 39.4909 17.3358 39.8871 17.0798 40.1656C16.6562 40.6261 16.2623 40.8563 15.8979 40.8563C15.5334 40.8563 15.2429 40.8028 15.0262 40.6957C14.8095 40.5993 14.6224 40.4654 14.4648 40.2941C14.1299 39.9514 13.9625 39.5123 13.9625 38.9769V33.5957H12.8988C12.554 33.5957 12.2832 33.4939 12.0862 33.2905C11.7612 32.9264 11.5987 32.5462 11.5987 32.15C11.5987 31.743 11.7218 31.4003 11.968 31.1219C12.2241 30.8328 12.5344 30.6882 12.8988 30.6882H13.9625V25.2106C13.9625 24.1932 14.3811 23.2562 15.2183 22.3995C15.3069 22.3138 15.3512 22.2174 15.3512 22.1103ZM17.4639 30.6882H20.9653V23.54C20.9653 23.0045 20.8422 22.603 20.5959 22.3352C20.1626 21.864 19.7588 21.6284 19.3845 21.6284C19.0201 21.6284 18.7295 21.682 18.5128 21.7891C18.306 21.8855 18.1238 22.0193 17.9662 22.1907C17.6313 22.5548 17.4639 22.9992 17.4639 23.5239V30.6882Z" fill="white"/>
</g>
<defs>
<filter id="filter0_d_2_8" x="0" y="0" width="62" height="65" filterUnits="userSpaceOnUse" color-interpolation-filters="sRGB">
<feFlood flood-opacity="0" result="BackgroundImageFix"/>
<feColorMatrix in="SourceAlpha" type="matrix" values="0 0 0 0 0 0 0 0 0 0 0 0 0 0 0 0 0 0 127 0" result="hardAlpha"/>
<feOffset dy="4"/>
<feGaussianBlur stdDeviation="2"/>
<feComposite in2="hardAlpha" operator="out"/>
<feColorMatrix type="matrix" values="0 0 0 0 0 0 0 0 0 0 0 0 0 0 0 0 0 0 0.25 0"/>
<feBlend mode="normal" in2="BackgroundImageFix" result="effect1_dropShadow_2_8"/>
<feBlend mode="normal" in="SourceGraphic" in2="effect1_dropShadow_2_8" result="shape"/>
</filter>
</defs>
</svg>
